<svg xmlns="http://www.w3.org/2000/svg" width="96" height="96" viewBox="0 0 300 300">
  <path stroke="#000" d="M151 58.44c-7.37 1.38-14.72 3.73-21 7.92-4.47 2.98-9.08 7.27-12.21 11.64-3.38 4.72-5.15 9.33-6.17 15-5.19 28.72 23.13 51.01 38.23 72 5.21 7.25 9.28 14.93 9.97 24 1.13 14.91-11.23 28.19-25.82 29.47-16.29 1.43-27.6-15.98-20.6-30.47 2.56-5.29 7.17-9.33 12.6-11.52 5.03-2.03 8.48-.93 9.89-3.08 1.51-2.31-.95-6.44-2.45-8.22-3.97-4.7-12.41-7.31-18.44-6.97-26.95 1.51-38.33 34.53-25.66 56.79 8.78 15.44 26.09 19.97 42.66 20.91 8.37.47 23.32-2.76 31-6.22 7.77-3.5 14.86-8.13 20.38-14.7 3.47-4.13 6.13-7.98 8.17-12.99 2.2-5.42 3.38-11.15 3.45-17 .28-24.56-10.88-37.74-26.98-55-10.86-11.65-28.65-29.61-21.06-47 4.25-9.72 17.13-17.63 27.02-10.49 7.8 5.63 8.57 14.27 4.62 22.49-2.95 6.15-7.6 8.57-4.23 12.78 4.25 5.3 23.09 8.84 28.58-8.78 1.11-3.57 1.08-6.32 1.05-10-.29-28.3-30.78-33.41-53-30.56z"/>
</svg>