<?xml version="1.0" standalone="no"?>
<!DOCTYPE svg PUBLIC "-//W3C//DTD SVG 20010904//EN"
 "http://www.w3.org/TR/2001/REC-SVG-20010904/DTD/svg10.dtd">
<svg version="1.0" xmlns="http://www.w3.org/2000/svg"
 width="700.000000pt" height="700.000000pt" viewBox="0 0 700.000000 700.000000"
 preserveAspectRatio="xMidYMid meet">
<metadata>
Created by potrace 1.11, written by Peter Selinger 2001-2013
</metadata>
<g transform="translate(0.000000,700.000000) scale(0.100000,-0.100000)"
fill="#000000" stroke="none">
<path d="M3707 5664 c-1 -1 -42 -5 -91 -8 -50 -4 -119 -14 -155 -22 -36 -8
-76 -17 -88 -19 -13 -3 -55 -17 -95 -31 -335 -121 -592 -381 -667 -674 -67
-267 -28 -513 127 -794 48 -87 170 -269 184 -274 4 -2 8 -10 8 -17 0 -7 4 -15
8 -17 4 -1 44 -48 89 -103 45 -55 127 -154 183 -220 240 -282 334 -411 405
-554 77 -156 106 -273 101 -416 -8 -208 -151 -425 -346 -525 -25 -12 -56 -28
-70 -35 -14 -7 -59 -20 -100 -29 -256 -52 -479 74 -565 321 -20 57 -24 84 -21
163 3 107 20 166 73 248 75 118 214 215 337 236 108 19 137 29 152 51 21 33
20 73 -3 126 -62 140 -239 238 -443 245 -190 7 -357 -58 -511 -197 -83 -75
-187 -250 -224 -375 -39 -131 -52 -340 -30 -459 63 -336 268 -579 592 -701 75
-28 200 -62 262 -70 25 -3 48 -8 51 -9 3 -2 36 -6 74 -10 199 -21 350 -9 566
41 36 9 72 17 81 19 62 13 216 73 305 120 178 92 309 198 416 334 29 36 55 68
58 71 15 14 73 120 103 188 31 69 71 218 81 299 33 277 -32 594 -172 838 -33
57 -110 174 -121 185 -4 3 -25 30 -49 62 -24 31 -53 67 -65 80 -12 13 -37 42
-56 64 -35 40 -197 217 -241 263 -34 35 -146 164 -196 226 -54 67 -133 186
-171 260 -150 288 -90 579 152 739 105 70 239 93 333 58 102 -39 190 -128 223
-225 16 -50 19 -164 6 -223 -12 -48 -55 -134 -109 -218 -40 -60 -58 -98 -58
-120 0 -93 130 -173 290 -180 171 -7 308 68 383 212 49 93 64 162 66 294 2
147 -18 248 -72 358 -51 104 -148 207 -253 269 -81 48 -232 104 -320 120 -32
6 -69 13 -82 16 -60 11 -325 27 -335 19z"/>
</g>
</svg>
